<svg xmlns="http://www.w3.org/2000/svg" width="180" height="90" viewBox="0 0 180 90">
    <g fill="none" fill-rule="evenodd">
        <g>
            <g>
                <g>
                    <g>
                        <g>
                            <path fill="#3986E1" d="M125.625 15c1.036 0 1.875.84 1.875 1.875V75h-26.25v-7.5H105v3.75h18.75v-52.5H105v3.75h-3.75v-5.625c0-1.036.84-1.875 1.875-1.875h22.5z" transform="translate(-2175.000000, -265.000000) translate(2010.000000, 100.000000) translate(5.000000, 55.000000) translate(70.000000, 110.000000) translate(90.000000, 0.000000)"/>
                            <path fill="#000" fill-opacity=".7" d="M106.875 26.25c1.036 0 1.875.84 1.875 1.875v33.75c0 1.036-.84 1.875-1.875 1.875H82.5v7.5H90V75H71.25v-3.75h7.5v-7.5H54.375c-1.036 0-1.875-.84-1.875-1.875v-33.75c0-1.036.84-1.875 1.875-1.875h52.5zM105 30H56.25v30H105V30z" transform="translate(-2175.000000, -265.000000) translate(2010.000000, 100.000000) translate(5.000000, 55.000000) translate(70.000000, 110.000000) translate(90.000000, 0.000000)"/>
                            <path fill="#1B6ED0" d="M120 60L120 63.75 112.5 63.75 112.5 60zM120 48.75L120 52.5 112.5 52.5 112.5 48.75z" transform="translate(-2175.000000, -265.000000) translate(2010.000000, 100.000000) translate(5.000000, 55.000000) translate(70.000000, 110.000000) translate(90.000000, 0.000000)"/>
                            <path fill="#299FFF" d="M146.701 45c-4.26 0-7.714 3.454-7.714 7.714v2.572h-9.13v-2.572h6.559c0-5.68 4.605-10.285 10.285-10.285 5.681 0 10.286 4.605 10.286 10.285h18.13c-.753.738-1.377 1.608-1.835 2.572h-18.866v-2.572c0-4.26-3.454-7.714-7.715-7.714z" transform="translate(-2175.000000, -265.000000) translate(2010.000000, 100.000000) translate(5.000000, 55.000000) translate(70.000000, 110.000000) translate(90.000000, 0.000000)"/>
                            <path fill="#55B6FF" d="M43.586 72h24.557v2.571h-27v-1.285c0-2.13-1.727-3.857-3.857-3.857s-3.857 1.726-3.857 3.857v1.285H19.286V72h11.7c.595-2.934 3.19-5.143 6.3-5.143s5.704 2.209 6.3 5.143z" transform="translate(-2175.000000, -265.000000) translate(2010.000000, 100.000000) translate(5.000000, 55.000000) translate(70.000000, 110.000000) translate(90.000000, 0.000000)"/>
                            <path fill="#2E70BE" d="M50.142 47.976v2.642c-6.276 1.595-11.016 7.037-11.563 13.668H36c.569-8.056 6.438-14.649 14.142-16.31z" transform="translate(-2175.000000, -265.000000) translate(2010.000000, 100.000000) translate(5.000000, 55.000000) translate(70.000000, 110.000000) translate(90.000000, 0.000000)"/>
                            <path fill="#2E70BE" d="M147.812 22.738h.045v2.572h-.045c-8.088 0-14.723 6.223-15.376 14.143h-2.579c.66-9.341 8.446-16.715 17.955-16.715z" transform="translate(-2175.000000, -265.000000) translate(2010.000000, 100.000000) translate(5.000000, 55.000000) translate(70.000000, 110.000000) translate(90.000000, 0.000000) translate(138.857559, 31.095602) scale(-1, 1) translate(-138.857559, -31.095602)"/>
                        </g>
                    </g>
                </g>
            </g>
        </g>
    </g>
</svg>
