<svg xmlns="http://www.w3.org/2000/svg" width="180" height="90" viewBox="0 0 180 90">
    <g fill="none" fill-rule="evenodd">
        <g>
            <g>
                <g>
                    <g>
                        <g>
                            <path fill="#299FFF" d="M128.844 45c-4.26 0-7.714 3.454-7.714 7.714v2.572H106v-2.572h12.558c0-5.68 4.606-10.285 10.286-10.285s10.286 4.605 10.286 10.285h18.13c-.754.738-1.378 1.608-1.835 2.572h-18.867v-2.572c0-4.26-3.453-7.714-7.714-7.714z" transform="translate(-2785.000000, -265.000000) translate(2620.000000, 100.000000) translate(5.000000, 55.000000) translate(70.000000, 110.000000) translate(90.000000, 0.000000)"/>
                            <path fill="#ED511D" d="M92.624 20.27c.664.41 1.223.968 1.632 1.631l28.042 45.475c1.45 2.35.72 5.43-1.631 6.88-.79.486-1.698.744-2.625.744H61.958c-2.762 0-5-2.239-5-5 0-.927.257-1.836.744-2.624L85.744 21.9c1.45-2.35 4.53-3.08 6.88-1.631zm-3.408 3.635l-.067.096-28.043 45.474c-.097.158-.148.34-.148.525 0 .513.386.936.883.993l.117.007h56.084c.186 0 .368-.052.525-.149.437-.269.594-.82.382-1.273l-.055-.103L90.85 24.001c-.061-.1-.14-.187-.23-.26l-.096-.066c-.437-.27-.999-.163-1.31.23zM92 61v5h-4v-5h4zm0-25v22h-4V36h4z" transform="translate(-2785.000000, -265.000000) translate(2620.000000, 100.000000) translate(5.000000, 55.000000) translate(70.000000, 110.000000) translate(90.000000, 0.000000)"/>
                            <path fill="#55B6FF" d="M52.3 65.143h24.557v2.571h-27V66.43c0-2.13-1.727-3.858-3.857-3.858s-3.857 1.727-3.857 3.858v1.285H28v-2.571h11.7C40.296 62.209 42.89 60 46 60s5.704 2.209 6.3 5.143z" transform="translate(-2785.000000, -265.000000) translate(2620.000000, 100.000000) translate(5.000000, 55.000000) translate(70.000000, 110.000000) translate(90.000000, 0.000000)"/>
                            <path fill="#2E70BE" d="M62.955 41.596c2.678 0 5.22.584 7.503 1.633l-1.375 2.203c-1.878-.814-3.95-1.265-6.128-1.265-8.088 0-14.723 6.223-15.376 14.143H45c.66-9.341 8.446-16.714 17.955-16.714z" transform="translate(-2785.000000, -265.000000) translate(2620.000000, 100.000000) translate(5.000000, 55.000000) translate(70.000000, 110.000000) translate(90.000000, 0.000000)"/>
                        </g>
                    </g>
                </g>
            </g>
        </g>
    </g>
</svg>
